<svg width="108.000000" height="108.000000" viewBox="0 0 108 108" fill="none" xmlns="http://www.w3.org/2000/svg" xmlns:xlink="http://www.w3.org/1999/xlink">
	<desc>
			Created with Pixso.
	</desc>
	<defs>
		<clipPath id="clip7_1">
			<rect id="指纹" width="66.000000" height="66.000000" transform="translate(19.000000 19.000000)" fill="white"/>
		</clipPath>
		<clipPath id="clip7_5">
			<rect id="画板 5" width="108.000000" height="108.000000" fill="white"/>
		</clipPath>
	</defs>
	<g clip-path="url(#clip7_5)">
		<g clip-path="url(#clip7_1)">
			<path id="path" d="M27.1913 62.0623L24.28 59.2323C26.891 56.515 27.2259 52.893 27.2259 50.0411L27.2345 49.851C28.2304 39.166 34.1001 34.0404 34.3493 33.8275L36.9701 36.9322L35.6597 35.3812L36.9797 36.9259C36.7817 37.0995 32.1324 41.2565 31.2757 50.1408C31.2661 53.4724 30.8156 58.2908 27.1913 62.0623ZM74.5522 44.2628C74.4845 43.8998 72.7553 35.1139 63.0411 31.2423L62.959 31.2073C52.8309 26.6411 43.1355 32.002 43.0395 32.0574L41.044 28.5146C41.5086 28.2489 52.5508 22.0772 64.5753 27.4724C76.4088 32.2125 78.4571 43.09 78.5386 43.55L74.5522 44.2628ZM71.6921 75.826L68.528 73.285C77.3701 62.1498 75.493 48.4512 75.4732 48.3139L79.4774 47.71C79.5718 48.34 81.665 63.2655 71.6921 75.826ZM31.111 68.067L28.473 64.9776C34.6314 59.658 35.1175 53.7295 35.4716 49.4016L35.5455 48.5809C37.1797 38.1568 46.1847 34.4473 46.5675 34.2948L48.0704 38.074C47.7757 38.1944 40.8539 41.113 39.5564 49.1419L39.5072 49.7332C39.1191 54.4832 38.5317 61.6588 31.111 68.067ZM69.5477 62.7695L65.6561 61.6446C68.1311 52.9798 67.7238 46.5151 64.4459 42.4297C60.0084 36.8982 51.4951 37.4037 51.41 37.4113L51.1248 33.3487C51.5538 33.3184 61.7891 32.6663 67.5763 39.8448C71.7505 45.0231 72.4131 52.7362 69.5477 62.7695ZM42.2221 76.123L39.6418 72.985C53.785 61.2179 51.7126 50.3318 51.6175 49.8741L55.5713 48.997C55.694 49.5501 58.3957 62.6669 42.2221 76.123ZM59.621 78.73L56.7711 75.8379C62.235 70.3902 64.5261 63.7011 64.5486 63.6345L68.3842 64.939C67.4237 67.5195 66.2051 69.9718 64.7283 72.2957C63.2515 74.6197 61.5493 76.7645 59.621 78.73ZM36.0475 72.7524L33.619 69.4943C37.018 66.9295 39.4758 63.2045 39.5003 63.1672L42.8824 65.4062C42.7659 65.5828 40.0058 69.7662 36.0475 72.7524ZM49.8279 78.4782L47.284 75.3102C55.0518 68.9996 57.6087 61.9617 58.9821 58.1809C59.8547 55.7795 60.0546 51.9109 58.7511 49.166C58.5756 48.7736 58.3612 48.4038 58.1079 48.0565C57.8547 47.7093 57.5681 47.3921 57.2482 47.105C56.9283 46.8179 56.5821 46.5672 56.2096 46.3529C55.837 46.1385 55.4463 45.9652 55.0373 45.8329C53.2774 45.2287 51.7835 45.371 50.4698 46.2636C48.4238 47.6549 47.4615 50.3886 47.4008 51.5436C47.0708 58.4528 44.6595 62.8184 44.5569 63.0005L41.0282 61.0034C41.0486 60.9664 43.0765 57.2318 43.357 51.338C43.4942 48.7412 45.238 44.906 48.2024 42.89C49.8543 41.768 52.6079 40.6971 56.3441 41.9785C57.0075 42.2009 57.6415 42.4879 58.2462 42.8398C58.8509 43.1917 59.4138 43.601 59.9349 44.0678C60.4559 44.5347 60.9244 45.0494 61.3403 45.612C61.7562 46.1745 62.111 46.7733 62.4046 47.4084C64.2856 51.3651 63.9516 56.3712 62.7874 59.5775C61.3842 63.4338 58.47 71.4578 49.8279 78.4782Z" fill-rule="nonzero" fill="#FFFFFF"/>
		</g>
	</g>
</svg>
